<svg xmlns="http://www.w3.org/2000/svg" xmlns:xlink="http://www.w3.org/1999/xlink" width="80" zoomAndPan="magnify" viewBox="0 0 60 60" height="80" preserveAspectRatio="xMidYMid meet" version="1.0"><defs><clipPath id="id1"><path d="M 6 5.105469 L 41 5.105469 L 41 45 L 6 45 Z M 6 5.105469 " clip-rule="nonzero"/></clipPath><clipPath id="id2"><path d="M 5.292969 12 L 54.792969 12 L 54.792969 54.605469 L 5.292969 54.605469 Z M 5.292969 12 " clip-rule="nonzero"/></clipPath><clipPath id="id3"><path d="M 41 5.105469 L 54.792969 5.105469 L 54.792969 28 L 41 28 Z M 41 5.105469 " clip-rule="nonzero"/></clipPath></defs><path fill="rgb(0%, 50.19989%, 21.569824%)" d="M 56.097656 1.871094 C 57.214844 1.871094 58.128906 2.785156 58.128906 3.902344 L 58.128906 56.097656 C 58.128906 57.214844 57.214844 58.128906 56.097656 58.128906 L 3.902344 58.128906 C 2.785156 58.128906 1.871094 57.214844 1.871094 56.097656 L 1.871094 3.902344 C 1.871094 2.785156 2.785156 1.871094 3.902344 1.871094 L 56.097656 1.871094 M 56.097656 0 L 3.902344 0 C 1.75 0 0 1.75 0 3.902344 L 0 56.097656 C 0 58.25 1.75 60 3.902344 60 L 56.097656 60 C 58.25 60 60 58.25 60 56.097656 L 60 3.902344 C 60 1.75 58.25 0 56.097656 0 " fill-opacity="1" fill-rule="nonzero"/><path fill="rgb(96.469116%, 65.098572%, 27.059937%)" d="M 25.382812 31.476562 L 25.382812 27.621094 C 25.382812 27.195312 25.03125 26.851562 24.605469 26.851562 L 19.167969 26.851562 C 18.738281 26.851562 18.390625 27.195312 18.390625 27.621094 L 18.390625 31.476562 C 18.390625 31.898438 18.738281 32.246094 19.167969 32.246094 L 24.605469 32.246094 C 25.03125 32.246094 25.382812 31.898438 25.382812 31.476562 Z M 23.828125 30.703125 L 19.945312 30.703125 L 19.945312 28.390625 L 23.828125 28.390625 Z M 23.828125 30.703125 " fill-opacity="1" fill-rule="nonzero"/><path fill="rgb(96.469116%, 65.098572%, 27.059937%)" d="M 27.324219 21.453125 L 33.539062 21.453125 C 33.964844 21.453125 34.277344 21.144531 34.316406 20.71875 C 34.160156 20.449219 33.964844 20.179688 33.734375 19.949219 C 33.695312 19.910156 33.617188 19.910156 33.539062 19.910156 L 27.324219 19.910156 C 26.898438 19.910156 26.546875 20.257812 26.546875 20.679688 C 26.546875 21.105469 26.898438 21.453125 27.324219 21.453125 Z M 27.324219 21.453125 " fill-opacity="1" fill-rule="nonzero"/><g clip-path="url(#id1)"><path fill="rgb(96.469116%, 65.098572%, 27.059937%)" d="M 8.019531 26.503906 L 9.84375 24.882812 L 9.84375 44.390625 L 11.398438 43.3125 L 11.398438 23.765625 C 11.398438 23.6875 11.398438 23.613281 11.359375 23.535156 L 29.695312 7.074219 C 30.042969 6.765625 30.664062 6.765625 31.015625 7.074219 L 35.519531 11.121094 C 37.65625 11.660156 39.289062 12.546875 40.492188 13.511719 L 32.0625 5.917969 C 31.132812 5.105469 29.65625 5.105469 28.683594 5.917969 L 6.96875 25.347656 C 6.660156 25.617188 6.621094 26.117188 6.929688 26.425781 C 7.203125 26.773438 7.707031 26.773438 8.019531 26.503906 Z M 8.019531 26.503906 " fill-opacity="1" fill-rule="nonzero"/></g><g clip-path="url(#id2)"><path fill="rgb(96.469116%, 65.098572%, 27.059937%)" d="M 39.132812 34.636719 L 39.753906 35.484375 C 39.949219 35.753906 40.257812 35.871094 40.609375 35.792969 L 43.171875 35.101562 L 43.871094 36.101562 L 42.164062 38.53125 C 41.96875 38.800781 41.96875 39.148438 42.164062 39.417969 L 43.871094 41.921875 C 44.300781 42.539062 44.960938 42.886719 45.699219 42.886719 C 46.164062 42.886719 46.589844 42.734375 46.980469 42.5 L 53.542969 37.953125 C 54.554688 37.257812 54.785156 35.871094 54.125 34.867188 L 52.261719 32.167969 C 52.066406 31.898438 51.679688 31.746094 51.367188 31.863281 L 48.496094 32.863281 L 48.027344 32.167969 L 49.816406 29.394531 C 49.96875 29.125 49.96875 28.816406 49.816406 28.546875 L 41.851562 17.058594 C 41.582031 16.632812 38.707031 12.199219 31.867188 12.199219 C 30.625 12.199219 29.304688 12.355469 27.90625 12.664062 C 27.597656 12.738281 27.324219 13.011719 27.324219 13.355469 C 27.285156 13.703125 27.519531 14.011719 27.828125 14.128906 C 27.90625 14.167969 34.9375 16.671875 36.570312 21.875 L 33.8125 25.847656 C 33.617188 26.117188 33.617188 26.464844 33.8125 26.734375 L 35.171875 28.699219 L 6.542969 48.554688 C 5.53125 49.25 5.300781 50.636719 5.960938 51.636719 L 7.359375 53.644531 C 7.785156 54.261719 8.445312 54.605469 9.183594 54.605469 C 9.648438 54.605469 10.078125 54.453125 10.464844 54.222656 Z M 36.878906 28.429688 L 35.402344 26.269531 L 38.046875 22.453125 C 38.160156 22.261719 38.199219 22.03125 38.160156 21.839844 C 37.074219 17.75 33.304688 15.128906 30.78125 13.78125 C 31.132812 13.742188 31.519531 13.742188 31.867188 13.742188 C 37.96875 13.742188 40.414062 17.714844 40.53125 17.867188 C 40.53125 17.867188 40.53125 17.90625 40.570312 17.90625 L 48.222656 28.96875 L 46.4375 31.746094 C 46.28125 32.015625 46.28125 32.324219 46.4375 32.59375 L 47.523438 34.214844 C 47.71875 34.484375 48.105469 34.636719 48.417969 34.519531 L 51.292969 33.519531 L 52.804688 35.714844 C 53.039062 36.023438 52.960938 36.449219 52.652344 36.679688 L 46.085938 41.230469 C 45.773438 41.421875 45.347656 41.34375 45.152344 41.035156 L 43.714844 38.992188 L 45.425781 36.566406 C 45.621094 36.292969 45.621094 35.949219 45.425781 35.679688 L 44.105469 33.789062 C 43.910156 33.519531 43.601562 33.402344 43.25 33.480469 L 40.6875 34.175781 L 40.21875 33.480469 L 38.859375 31.4375 C 38.628906 31.089844 38.121094 30.976562 37.773438 31.207031 C 37.421875 31.4375 37.308594 31.9375 37.539062 32.285156 L 38.238281 33.328125 L 14.738281 49.363281 L 12.523438 46.242188 L 36.6875 29.511719 C 37.035156 29.277344 37.152344 28.777344 36.878906 28.429688 Z M 9.574219 52.949219 C 9.261719 53.140625 8.835938 53.066406 8.640625 52.757812 L 7.242188 50.75 C 7.007812 50.441406 7.085938 50.019531 7.398438 49.789062 L 11.242188 47.128906 L 13.457031 50.25 Z M 9.574219 52.949219 " fill-opacity="1" fill-rule="nonzero"/></g><path fill="rgb(96.469116%, 65.098572%, 27.059937%)" d="M 11.011719 50.367188 C 11.011719 50.578125 10.933594 50.761719 10.78125 50.910156 C 10.628906 51.0625 10.449219 51.136719 10.234375 51.136719 C 10.019531 51.136719 9.835938 51.0625 9.683594 50.910156 C 9.53125 50.761719 9.457031 50.578125 9.457031 50.367188 C 9.457031 50.152344 9.53125 49.972656 9.683594 49.820312 C 9.835938 49.671875 10.019531 49.59375 10.234375 49.59375 C 10.449219 49.59375 10.628906 49.671875 10.78125 49.820312 C 10.933594 49.972656 11.011719 50.152344 11.011719 50.367188 Z M 11.011719 50.367188 " fill-opacity="1" fill-rule="nonzero"/><path fill="rgb(96.469116%, 65.098572%, 27.059937%)" d="M 42.589844 26.886719 C 42.746094 27.121094 42.976562 27.234375 43.25 27.234375 C 43.40625 27.234375 43.5625 27.195312 43.675781 27.121094 C 44.027344 26.886719 44.144531 26.386719 43.910156 26.039062 L 41.582031 22.570312 C 41.347656 22.222656 40.84375 22.109375 40.492188 22.339844 C 40.144531 22.570312 40.027344 23.070312 40.257812 23.417969 Z M 42.589844 26.886719 " fill-opacity="1" fill-rule="nonzero"/><path fill="rgb(96.469116%, 65.098572%, 27.059937%)" d="M 15.671875 34.558594 L 15.671875 40.34375 L 17.226562 39.261719 L 17.226562 35.332031 L 22.894531 35.332031 L 25.109375 33.789062 L 16.449219 33.789062 C 16.019531 33.789062 15.671875 34.136719 15.671875 34.558594 Z M 15.671875 34.558594 " fill-opacity="1" fill-rule="nonzero"/><path fill="rgb(96.469116%, 65.098572%, 27.059937%)" d="M 51.019531 41.578125 L 49.464844 42.65625 L 49.464844 45.355469 L 28.101562 45.355469 L 28.101562 44.003906 L 26.546875 45.085938 L 26.546875 49.980469 L 19.398438 49.980469 L 17.148438 51.523438 L 50.242188 51.523438 C 50.667969 51.523438 51.019531 51.175781 51.019531 50.75 Z M 28.101562 46.894531 L 49.464844 46.894531 L 49.464844 49.980469 L 28.101562 49.980469 Z M 28.101562 46.894531 " fill-opacity="1" fill-rule="nonzero"/><g clip-path="url(#id3)"><path fill="rgb(96.469116%, 65.098572%, 27.059937%)" d="M 42.203125 15.015625 C 42.242188 15.054688 42.28125 15.089844 42.316406 15.128906 C 42.394531 15.246094 42.511719 15.324219 42.589844 15.4375 C 42.628906 15.476562 42.628906 15.476562 42.667969 15.515625 C 42.746094 15.632812 42.824219 15.707031 42.863281 15.785156 C 43.015625 15.976562 43.132812 16.132812 43.171875 16.25 L 46.164062 20.566406 L 49.542969 23.574219 C 49.503906 23.648438 49.503906 23.726562 49.503906 23.804688 L 49.503906 25.386719 L 51.058594 27.621094 L 51.058594 24.882812 L 52.882812 26.503906 C 53.039062 26.617188 53.234375 26.695312 53.390625 26.695312 C 53.582031 26.695312 53.816406 26.617188 53.972656 26.425781 C 54.242188 26.117188 54.242188 25.617188 53.894531 25.347656 L 50.628906 22.453125 L 50.628906 12.972656 C 50.628906 12.546875 50.28125 12.199219 49.855469 12.199219 C 49.425781 12.199219 49.078125 12.546875 49.078125 12.972656 L 49.078125 21.066406 L 46.746094 18.984375 L 46.746094 10.273438 C 46.746094 9.847656 46.398438 9.5 45.96875 9.5 C 45.542969 9.5 45.191406 9.847656 45.191406 10.273438 L 45.191406 17.597656 L 42.863281 15.515625 L 42.863281 6.03125 C 42.863281 5.609375 42.511719 5.261719 42.085938 5.261719 C 41.65625 5.261719 41.308594 5.609375 41.308594 6.03125 L 41.308594 14.089844 C 41.65625 14.4375 41.96875 14.707031 42.203125 15.015625 Z M 42.203125 15.015625 " fill-opacity="1" fill-rule="nonzero"/></g></svg>