<svg xmlns="http://www.w3.org/2000/svg" xmlns:xlink="http://www.w3.org/1999/xlink" width="80" zoomAndPan="magnify" viewBox="0 0 60 60" height="80" preserveAspectRatio="xMidYMid meet" version="1.0"><defs><clipPath id="id1"><path d="M 43 54 L 50 54 L 50 57.601562 L 43 57.601562 Z M 43 54 " clip-rule="nonzero"/></clipPath><clipPath id="id2"><path d="M 0 2.101562 L 60 2.101562 L 60 57.601562 L 0 57.601562 Z M 0 2.101562 " clip-rule="nonzero"/></clipPath><clipPath id="id3"><path d="M 26.328125 24.476562 L 33.828125 24.476562 L 33.828125 35.726562 L 26.328125 35.726562 Z M 26.328125 24.476562 " clip-rule="nonzero"/></clipPath></defs><g clip-path="url(#id1)"><path fill="rgb(0%, 50.19989%, 21.569824%)" d="M 43.070312 54.996094 L 44.835938 57.605469 L 49.046875 57.605469 L 47.28125 54.996094 Z M 43.070312 54.996094 " fill-opacity="1" fill-rule="nonzero"/></g><path fill="rgb(49.409485%, 85.099792%, 34.118652%)" d="M 45.484375 51.453125 L 47.25 54.0625 L 51.796875 54.0625 L 50.03125 51.453125 Z M 45.484375 51.453125 " fill-opacity="1" fill-rule="nonzero"/><path fill="rgb(96.469116%, 65.098572%, 27.059937%)" d="M 36.101562 48.09375 L 37.835938 50.664062 L 37.773438 50.707031 L 42.429688 50.707031 L 40.664062 48.09375 Z M 36.101562 48.09375 " fill-opacity="1" fill-rule="nonzero"/><path fill="rgb(96.469116%, 65.098572%, 27.059937%)" d="M 17.808594 48.09375 C 17.65625 48.09375 17.535156 47.972656 17.535156 47.824219 L 17.535156 26.171875 L 30 14.640625 L 42.464844 26.171875 L 42.464844 43.609375 L 45.089844 43.609375 L 45.089844 25.222656 C 45.089844 25.101562 45.039062 24.988281 44.949219 24.90625 L 30.296875 11.351562 C 30.128906 11.195312 29.871094 11.195312 29.703125 11.351562 L 15.050781 24.90625 C 14.960938 24.988281 14.910156 25.101562 14.910156 25.222656 L 14.910156 49.78125 C 14.910156 50.292969 15.324219 50.707031 15.839844 50.707031 L 36.058594 50.707031 L 34.292969 48.09375 Z M 17.808594 48.09375 " fill-opacity="1" fill-rule="nonzero"/><path fill="rgb(49.409485%, 85.099792%, 34.118652%)" d="M 14.652344 51.453125 C 14.378906 51.453125 14.160156 51.234375 14.160156 50.964844 L 14.160156 24.898438 C 14.160156 24.777344 14.210938 24.664062 14.300781 24.582031 L 29.703125 10.332031 C 29.871094 10.175781 30.132812 10.175781 30.300781 10.332031 L 45.699219 24.582031 C 45.789062 24.664062 45.839844 24.777344 45.839844 24.898438 L 45.839844 41.507812 L 48.464844 41.507812 L 48.464844 30.871094 L 56.355469 30.871094 L 30.296875 6.765625 C 30.128906 6.609375 29.871094 6.609375 29.703125 6.765625 L 3.644531 30.871094 L 11.535156 30.871094 L 11.535156 52.394531 C 11.535156 53.316406 12.285156 54.0625 13.214844 54.0625 L 45.441406 54.0625 L 43.675781 51.453125 Z M 14.652344 51.453125 " fill-opacity="1" fill-rule="nonzero"/><g clip-path="url(#id2)"><path fill="rgb(0%, 50.19989%, 21.569824%)" d="M 13.214844 54.996094 C 11.769531 54.996094 10.597656 53.832031 10.597656 52.394531 L 10.597656 31.804688 L 2.65625 31.804688 L 2.65625 30.515625 L 29.703125 5.492188 C 29.871094 5.335938 30.128906 5.335938 30.296875 5.492188 L 57.34375 30.515625 L 57.34375 31.804688 L 49.402344 31.804688 L 49.402344 39.402344 L 52.027344 39.402344 L 52.027344 34.414062 L 59.070312 34.414062 C 59.566406 34.414062 59.96875 34.015625 59.96875 33.523438 L 59.96875 30.648438 C 59.96875 29.835938 59.628906 29.0625 59.03125 28.507812 L 32.863281 4.335938 L 30.941406 2.46875 C 30.679688 2.21875 30.339844 2.101562 30 2.113281 C 29.660156 2.101562 29.320312 2.21875 29.058594 2.46875 L 27.136719 4.335938 L 16.324219 14.324219 L 16.324219 12.203125 C 16.324219 11.773438 15.976562 11.421875 15.542969 11.421875 L 8.757812 11.421875 C 8.324219 11.421875 7.972656 11.773438 7.972656 12.203125 L 7.972656 22.039062 L 0.96875 28.507812 C 0.371094 29.0625 0.03125 29.835938 0.03125 30.648438 L 0.03125 33.523438 C 0.03125 34.015625 0.433594 34.414062 0.929688 34.414062 L 7.972656 34.414062 L 7.972656 52.394531 C 7.972656 55.273438 10.320312 57.605469 13.214844 57.605469 L 43.03125 57.605469 L 41.265625 54.996094 Z M 13.214844 54.996094 " fill-opacity="1" fill-rule="nonzero"/></g><g clip-path="url(#id3)"><path fill="rgb(49.409485%, 85.099792%, 34.118652%)" d="M 30.066406 24.503906 C 28.003906 24.503906 26.328125 26.183594 26.328125 28.230469 L 26.328125 35.519531 C 26.328125 35.691406 26.40625 35.671875 26.535156 35.671875 L 33.746094 35.671875 C 33.828125 35.671875 33.808594 35.699219 33.808594 35.519531 L 33.808594 28.230469 C 33.808594 26.183594 32.132812 24.503906 30.066406 24.503906 Z M 32.996094 28.84375 L 32.996094 34.863281 L 27.136719 34.863281 L 27.136719 28.84375 Z M 27.238281 28.125 C 27.328125 26.507812 28.617188 25.347656 30.195312 25.347656 C 31.769531 25.347656 33.050781 26.507812 33.140625 28.125 Z M 27.238281 28.125 " fill-opacity="1" fill-rule="nonzero"/></g></svg>