<svg xmlns="http://www.w3.org/2000/svg" xmlns:xlink="http://www.w3.org/1999/xlink" width="50" zoomAndPan="magnify" viewBox="0 0 37.5 37.499999" height="50" preserveAspectRatio="xMidYMid meet" version="1.0"><defs><g/><clipPath id="id1"><path d="M 19.554688 16.0625 L 28.238281 16.0625 L 28.238281 27.390625 L 19.554688 27.390625 Z M 19.554688 16.0625 " clip-rule="nonzero"/></clipPath><clipPath id="id2"><path d="M 14.480469 2.675781 L 23.167969 2.675781 L 23.167969 27.390625 L 14.480469 27.390625 Z M 14.480469 2.675781 " clip-rule="nonzero"/></clipPath><clipPath id="id3"><path d="M 9.488281 10.84375 L 18.09375 10.84375 L 18.09375 27.390625 L 9.488281 27.390625 Z M 9.488281 10.84375 " clip-rule="nonzero"/></clipPath></defs><g clip-path="url(#id1)"><path fill="rgb(99.21875%, 59.21936%, 17.248535%)" d="M 23.941406 16.109375 L 19.636719 20.40625 L 19.636719 25.382812 L 21.023438 25.382812 L 21.023438 20.960938 L 23.941406 18.046875 L 26.855469 20.960938 L 26.855469 26.035156 L 23.832031 26.035156 L 23.832031 27.390625 L 28.242188 27.390625 L 28.242188 20.40625 L 23.941406 16.109375 " fill-opacity="1" fill-rule="nonzero"/></g><g clip-path="url(#id2)"><path fill="rgb(98.039246%, 50.19989%, 0%)" d="M 18.863281 2.675781 L 14.5625 6.976562 L 14.5625 25.382812 L 15.949219 25.382812 L 15.949219 7.53125 L 18.863281 4.617188 L 21.78125 7.53125 L 21.78125 17.335938 L 23.167969 15.949219 L 23.167969 6.976562 Z M 21.78125 26.035156 L 18.757812 26.035156 L 18.757812 27.390625 L 23.167969 27.390625 L 23.167969 19.75 L 21.78125 21.132812 L 21.78125 26.035156 " fill-opacity="1" fill-rule="nonzero"/></g><g clip-path="url(#id3)"><path fill="rgb(32.939148%, 32.939148%, 32.939148%)" d="M 16.613281 13.6875 L 16.613281 15.625 L 16.707031 15.71875 L 16.707031 26.035156 L 10.875 26.035156 L 10.875 15.71875 L 13.789062 12.800781 L 13.898438 12.910156 L 13.898438 10.972656 L 13.789062 10.863281 L 9.488281 15.164062 L 9.488281 27.390625 L 18.09375 27.390625 L 18.09375 15.164062 L 16.613281 13.6875 " fill-opacity="1" fill-rule="nonzero"/></g><g fill="rgb(100%, 100%, 100%)" fill-opacity="1"><g transform="translate(10.896694, 35.219997)"><g><path d="M 5.773438 0 L 5.773438 -0.574219 L 5.285156 -0.574219 L 3.3125 -5.039062 L 1.757812 -5.039062 L 1.757812 -4.472656 L 2.339844 -4.472656 L 0.554688 -0.574219 L 0.078125 -0.574219 L 0.078125 0 L 1.859375 0 L 1.859375 -0.574219 L 1.246094 -0.574219 C 1.382812 -0.894531 1.527344 -1.203125 1.640625 -1.46875 L 4.226562 -1.46875 C 4.347656 -1.195312 4.472656 -0.886719 4.613281 -0.574219 L 3.988281 -0.574219 L 3.988281 0 Z M 3.972656 -2.03125 L 1.886719 -2.03125 C 2.1875 -2.722656 2.519531 -3.441406 2.960938 -4.429688 C 3.375 -3.464844 3.671875 -2.734375 3.972656 -2.03125 Z M 3.972656 -2.03125 "/></g></g></g><g fill="rgb(100%, 100%, 100%)" fill-opacity="1"><g transform="translate(17.52793, 35.219997)"><g><path d="M 0.09375 -4.464844 L 0.621094 -4.464844 L 2.46875 0 L 3.152344 0 L 4.996094 -4.464844 L 5.535156 -4.464844 L 5.535156 -5.039062 L 3.714844 -5.039062 L 3.714844 -4.464844 L 4.3125 -4.464844 L 2.808594 -0.75 L 1.308594 -4.464844 L 1.90625 -4.464844 L 1.90625 -5.039062 L 0.09375 -5.039062 Z M 0.09375 -4.464844 "/></g></g></g><g fill="rgb(100%, 100%, 100%)" fill-opacity="1"><g transform="translate(23.950372, 35.219997)"><g><path d="M 2.28125 0 L 2.28125 -0.574219 L 1.632812 -0.574219 L 1.632812 -4.464844 L 2.269531 -4.464844 L 2.269531 -5.039062 L 0.382812 -5.039062 L 0.382812 -4.464844 L 1.007812 -4.464844 L 1.007812 -0.574219 L 0.367188 -0.574219 L 0.367188 0 Z M 2.28125 0 "/></g></g></g></svg>