<svg xmlns="http://www.w3.org/2000/svg" xmlns:xlink="http://www.w3.org/1999/xlink" width="100" zoomAndPan="magnify" viewBox="0 0 75 74.999997" height="100" preserveAspectRatio="xMidYMid meet" version="1.0"><defs><g/><clipPath id="id1"><path d="M 38.683594 26.160156 L 52.574219 26.160156 L 52.574219 44.703125 L 38.683594 44.703125 Z M 38.683594 26.160156 " clip-rule="nonzero"/></clipPath><clipPath id="id2"><path d="M 30.558594 4.253906 L 44.464844 4.253906 L 44.464844 44.703125 L 30.558594 44.703125 Z M 30.558594 4.253906 " clip-rule="nonzero"/></clipPath><clipPath id="id3"><path d="M 22.574219 17.617188 L 36.34375 17.617188 L 36.34375 44.703125 L 22.574219 44.703125 Z M 22.574219 17.617188 " clip-rule="nonzero"/></clipPath></defs><g clip-path="url(#id1)"><path fill="rgb(99.21875%, 59.21936%, 17.248535%)" d="M 45.699219 26.234375 L 38.8125 33.273438 L 38.8125 41.417969 L 41.03125 41.417969 L 41.03125 34.175781 L 45.699219 29.40625 L 50.363281 34.175781 L 50.363281 42.484375 L 45.527344 42.484375 L 45.527344 44.703125 L 52.582031 44.703125 L 52.582031 33.273438 L 45.699219 26.234375 " fill-opacity="1" fill-rule="nonzero"/></g><g clip-path="url(#id2)"><path fill="rgb(98.039246%, 50.19989%, 0%)" d="M 37.578125 4.25 L 30.695312 11.289062 L 30.695312 41.417969 L 32.910156 41.417969 L 32.910156 12.195312 L 37.578125 7.425781 L 42.242188 12.195312 L 42.242188 28.242188 L 44.460938 25.976562 L 44.460938 11.289062 Z M 42.242188 42.484375 L 37.40625 42.484375 L 37.40625 44.703125 L 44.460938 44.703125 L 44.460938 32.195312 L 42.242188 34.460938 L 42.242188 42.484375 " fill-opacity="1" fill-rule="nonzero"/></g><g clip-path="url(#id3)"><path fill="rgb(32.939148%, 32.939148%, 32.939148%)" d="M 33.976562 22.273438 L 33.976562 25.445312 L 34.125 25.59375 L 34.125 42.484375 L 24.792969 42.484375 L 24.792969 25.59375 L 29.457031 20.824219 L 29.628906 21 L 29.628906 17.828125 L 29.457031 17.652344 L 22.574219 24.691406 L 22.574219 44.703125 L 36.339844 44.703125 L 36.339844 24.691406 L 33.976562 22.273438 " fill-opacity="1" fill-rule="nonzero"/></g><g fill="rgb(100%, 100%, 100%)" fill-opacity="1"><g transform="translate(23.981607, 60.697069)"><g><path d="M 9.941406 0 L 9.941406 -0.992188 L 9.101562 -0.992188 L 5.703125 -8.679688 L 3.023438 -8.679688 L 3.023438 -7.699219 L 4.027344 -7.699219 L 0.953125 -0.992188 L 0.136719 -0.992188 L 0.136719 0 L 3.199219 0 L 3.199219 -0.992188 L 2.144531 -0.992188 C 2.378906 -1.539062 2.628906 -2.070312 2.828125 -2.527344 L 7.277344 -2.527344 C 7.488281 -2.058594 7.699219 -1.523438 7.945312 -0.992188 L 6.867188 -0.992188 L 6.867188 0 Z M 6.84375 -3.496094 L 3.25 -3.496094 C 3.769531 -4.6875 4.339844 -5.925781 5.09375 -7.625 C 5.8125 -5.964844 6.324219 -4.710938 6.84375 -3.496094 Z M 6.84375 -3.496094 "/></g></g></g><g fill="rgb(100%, 100%, 100%)" fill-opacity="1"><g transform="translate(35.391313, 60.697069)"><g><path d="M 0.160156 -7.6875 L 1.066406 -7.6875 L 4.253906 0 L 5.429688 0 L 8.605469 -7.6875 L 9.535156 -7.6875 L 9.535156 -8.679688 L 6.398438 -8.679688 L 6.398438 -7.6875 L 7.425781 -7.6875 L 4.835938 -1.289062 L 2.257812 -7.6875 L 3.285156 -7.6875 L 3.285156 -8.679688 L 0.160156 -8.679688 Z M 0.160156 -7.6875 "/></g></g></g><g fill="rgb(100%, 100%, 100%)" fill-opacity="1"><g transform="translate(46.441801, 60.697069)"><g><path d="M 3.929688 0 L 3.929688 -0.992188 L 2.8125 -0.992188 L 2.8125 -7.6875 L 3.90625 -7.6875 L 3.90625 -8.679688 L 0.65625 -8.679688 L 0.65625 -7.6875 L 1.734375 -7.6875 L 1.734375 -0.992188 L 0.632812 -0.992188 L 0.632812 0 Z M 3.929688 0 "/></g></g></g><g fill="rgb(100%, 100%, 100%)" fill-opacity="1"><g transform="translate(3.856904, 69.450016)"><g><path d="M 5.25 -0.734375 L 4.765625 -1.195312 C 4.359375 -0.789062 3.765625 -0.570312 3.230469 -0.570312 C 1.753906 -0.570312 1.078125 -1.597656 1.0625 -2.707031 C 1.054688 -3.828125 1.753906 -4.890625 3.230469 -4.890625 C 3.628906 -4.890625 4.007812 -4.8125 4.359375 -4.59375 L 4.382812 -3.75 L 4.992188 -3.75 C 5 -4.132812 5.007812 -4.523438 5.007812 -4.90625 C 4.492188 -5.320312 3.859375 -5.539062 3.230469 -5.539062 C 1.308594 -5.539062 0.367188 -4.132812 0.382812 -2.699219 C 0.390625 -1.246094 1.300781 0.078125 3.230469 0.078125 C 3.96875 0.078125 4.695312 -0.1875 5.25 -0.734375 Z M 5.25 -0.734375 "/></g></g></g><g fill="rgb(100%, 100%, 100%)" fill-opacity="1"><g transform="translate(9.551009, 69.450016)"><g><path d="M 3.167969 -5.539062 C 1.441406 -5.539062 0.382812 -4.296875 0.382812 -2.714844 C 0.382812 -1.277344 1.285156 0.078125 3.160156 0.078125 C 5.03125 0.078125 5.921875 -1.285156 5.929688 -2.714844 C 5.9375 -4.15625 5.015625 -5.53125 3.167969 -5.539062 Z M 5.25 -2.714844 C 5.25 -1.636719 4.601562 -0.5625 3.167969 -0.5625 C 1.730469 -0.5625 1.0625 -1.605469 1.0625 -2.714844 C 1.0625 -3.90625 1.777344 -4.914062 3.167969 -4.914062 C 4.59375 -4.898438 5.257812 -3.820312 5.25 -2.714844 Z M 5.25 -2.714844 "/></g></g></g><g fill="rgb(100%, 100%, 100%)" fill-opacity="1"><g transform="translate(16.079732, 69.450016)"><g><path d="M 1.746094 -0.617188 L 1.746094 -4.164062 L 5.101562 0 L 5.570312 0 L 5.570312 -4.835938 L 6.222656 -4.835938 L 6.222656 -5.460938 L 4.21875 -5.460938 L 4.21875 -4.835938 L 4.898438 -4.835938 L 4.898438 -1.269531 L 1.550781 -5.460938 L 0.390625 -5.460938 L 0.390625 -4.835938 L 1.070312 -4.835938 L 1.070312 -0.617188 L 0.414062 -0.617188 L 0.414062 0 L 2.425781 0 L 2.425781 -0.617188 Z M 1.746094 -0.617188 "/></g></g></g><g fill="rgb(100%, 100%, 100%)" fill-opacity="1"><g transform="translate(22.873661, 69.450016)"><g><path d="M 2.519531 -5.539062 C 1.574219 -5.539062 0.453125 -5.15625 0.46875 -4.023438 C 0.46875 -2.902344 1.449219 -2.667969 2.496094 -2.503906 C 3.066406 -2.417969 4.117188 -2.300781 4.109375 -1.550781 C 4.109375 -0.742188 3.207031 -0.554688 2.535156 -0.554688 C 2.050781 -0.554688 1.496094 -0.710938 1.117188 -0.984375 L 1.085938 -1.746094 L 0.46875 -1.746094 L 0.46875 -0.664062 C 1.078125 -0.117188 1.738281 0.078125 2.527344 0.078125 C 3.574219 0.078125 4.78125 -0.28125 4.789062 -1.550781 C 4.789062 -2.746094 3.683594 -2.957031 2.574219 -3.128906 C 1.785156 -3.261719 1.140625 -3.402344 1.140625 -4.007812 C 1.140625 -4.664062 1.847656 -4.9375 2.535156 -4.9375 C 2.957031 -4.9375 3.464844 -4.84375 3.828125 -4.617188 L 3.859375 -3.828125 L 4.460938 -3.828125 C 4.460938 -4.226562 4.46875 -4.515625 4.46875 -4.914062 C 3.882812 -5.398438 3.246094 -5.539062 2.519531 -5.539062 Z M 2.519531 -5.539062 "/></g></g></g><g fill="rgb(100%, 100%, 100%)" fill-opacity="1"><g transform="translate(28.208961, 69.450016)"><g><path d="M 0.875 -4.851562 L 2.167969 -4.851562 L 2.167969 -0.625 L 1.457031 -0.625 L 1.457031 0 L 3.542969 0 L 3.542969 -0.625 L 2.839844 -0.625 L 2.839844 -4.851562 L 4.125 -4.851562 L 4.15625 -4.007812 L 4.757812 -4.007812 L 4.757812 -5.460938 L 0.25 -5.460938 L 0.25 -4.007812 L 0.851562 -4.007812 Z M 0.875 -4.851562 "/></g></g></g><g fill="rgb(100%, 100%, 100%)" fill-opacity="1"><g transform="translate(33.435059, 69.450016)"><g><path d="M 1.769531 -0.632812 L 1.769531 -2.089844 L 2.855469 -2.089844 L 4.046875 -0.578125 L 4.046875 0 L 5.5625 0 L 5.5625 -0.632812 L 4.820312 -0.632812 L 3.621094 -2.105469 C 4.648438 -2.160156 5.335938 -2.761719 5.335938 -3.804688 C 5.328125 -4.898438 4.546875 -5.460938 3.488281 -5.460938 L 0.414062 -5.460938 L 0.414062 -4.835938 L 1.09375 -4.835938 L 1.09375 -0.632812 L 0.421875 -0.632812 L 0.421875 0 L 2.542969 0 L 2.542969 -0.632812 Z M 3.480469 -2.675781 L 1.769531 -2.675781 L 1.769531 -4.835938 L 3.488281 -4.835938 C 4.179688 -4.835938 4.65625 -4.445312 4.65625 -3.78125 C 4.648438 -3.121094 4.289062 -2.675781 3.480469 -2.675781 Z M 3.480469 -2.675781 "/></g></g></g><g fill="rgb(100%, 100%, 100%)" fill-opacity="1"><g transform="translate(39.50357, 69.450016)"><g><path d="M 4.023438 -4.835938 L 4.734375 -4.835938 L 4.734375 -2.214844 C 4.734375 -1.140625 4.023438 -0.554688 3.183594 -0.554688 C 2.339844 -0.554688 1.605469 -1.117188 1.605469 -2.207031 L 1.605469 -4.835938 L 2.316406 -4.835938 L 2.316406 -5.460938 L 0.296875 -5.460938 L 0.296875 -4.835938 L 0.9375 -4.835938 L 0.9375 -2.207031 C 0.9375 -0.679688 2.019531 0.078125 3.183594 0.078125 C 4.375 0.078125 5.398438 -0.695312 5.398438 -2.207031 L 5.398438 -4.835938 L 6.046875 -4.835938 L 6.046875 -5.460938 L 4.023438 -5.460938 Z M 4.023438 -4.835938 "/></g></g></g><g fill="rgb(100%, 100%, 100%)" fill-opacity="1"><g transform="translate(46.047893, 69.450016)"><g><path d="M 5.25 -0.734375 L 4.765625 -1.195312 C 4.359375 -0.789062 3.765625 -0.570312 3.230469 -0.570312 C 1.753906 -0.570312 1.078125 -1.597656 1.0625 -2.707031 C 1.054688 -3.828125 1.753906 -4.898438 3.230469 -4.898438 C 3.628906 -4.898438 4.007812 -4.820312 4.359375 -4.601562 L 4.382812 -3.757812 L 4.992188 -3.757812 C 5 -4.140625 5.007812 -4.53125 5.007812 -4.914062 C 4.492188 -5.328125 3.859375 -5.546875 3.230469 -5.546875 C 1.308594 -5.546875 0.367188 -4.132812 0.382812 -2.699219 C 0.390625 -1.339844 1.1875 -0.09375 2.871094 0.0546875 L 2.621094 0.796875 L 2.746094 0.898438 C 3.199219 0.734375 3.542969 0.976562 3.457031 1.261719 C 3.402344 1.433594 3.222656 1.519531 3.027344 1.527344 C 2.808594 1.535156 2.589844 1.449219 2.449219 1.246094 L 2.136719 1.519531 C 2.324219 1.832031 2.691406 1.988281 3.042969 1.988281 C 3.449219 1.988281 3.859375 1.777344 3.960938 1.339844 C 4.046875 0.960938 3.867188 0.5 3.191406 0.507812 L 3.332031 0.078125 C 4.039062 0.0546875 4.71875 -0.210938 5.25 -0.734375 Z M 5.25 -0.734375 "/></g></g></g><g fill="rgb(100%, 100%, 100%)" fill-opacity="1"><g transform="translate(51.741998, 69.450016)"><g><path d="M 2.074219 -6.332031 L 2.089844 -6.332031 L 2.503906 -6.144531 C 2.597656 -6.402344 2.785156 -6.441406 2.957031 -6.378906 C 3.042969 -6.363281 3.308594 -6.191406 3.402344 -6.167969 C 3.765625 -6.023438 4.1875 -6.183594 4.3125 -6.722656 L 3.882812 -6.910156 C 3.796875 -6.660156 3.613281 -6.628906 3.441406 -6.691406 C 3.363281 -6.707031 3.097656 -6.863281 3.011719 -6.886719 C 2.574219 -7.042969 2.191406 -6.800781 2.074219 -6.332031 Z M 0.382812 -2.714844 C 0.382812 -1.277344 1.285156 0.109375 3.160156 0.109375 C 5.03125 0.109375 5.921875 -1.285156 5.929688 -2.714844 C 5.9375 -4.15625 5.015625 -5.546875 3.167969 -5.554688 C 1.441406 -5.554688 0.382812 -4.296875 0.382812 -2.714844 Z M 5.257812 -2.714844 L 5.25 -2.707031 C 5.25 -1.628906 4.601562 -0.539062 3.167969 -0.539062 C 1.730469 -0.539062 1.085938 -1.628906 1.070312 -2.714844 C 1.046875 -3.90625 1.785156 -4.929688 3.175781 -4.929688 C 4.601562 -4.914062 5.265625 -3.820312 5.257812 -2.714844 Z M 5.257812 -2.714844 "/></g></g></g><g fill="rgb(100%, 100%, 100%)" fill-opacity="1"><g transform="translate(58.270719, 69.450016)"><g><path d="M 0.398438 0 L 4.976562 0 L 4.976562 -1.472656 L 4.367188 -1.472656 L 4.34375 -0.640625 L 1.746094 -0.640625 L 1.746094 -2.464844 L 4.234375 -2.464844 L 4.234375 -3.097656 L 1.746094 -3.097656 L 1.746094 -4.835938 L 4.226562 -4.835938 L 4.25 -4.007812 L 4.859375 -4.007812 L 4.859375 -5.460938 L 0.414062 -5.460938 L 0.414062 -4.84375 L 1.078125 -4.84375 L 1.078125 -0.625 L 0.398438 -0.625 Z M 0.398438 0 "/></g></g></g><g fill="rgb(100%, 100%, 100%)" fill-opacity="1"><g transform="translate(63.863418, 69.450016)"><g><path d="M 2.519531 -5.539062 C 1.574219 -5.539062 0.453125 -5.15625 0.46875 -4.023438 C 0.46875 -2.902344 1.449219 -2.667969 2.496094 -2.503906 C 3.066406 -2.417969 4.117188 -2.300781 4.109375 -1.550781 C 4.109375 -0.742188 3.207031 -0.554688 2.535156 -0.554688 C 2.050781 -0.554688 1.496094 -0.710938 1.117188 -0.984375 L 1.085938 -1.746094 L 0.46875 -1.746094 L 0.46875 -0.664062 C 1.078125 -0.117188 1.738281 0.078125 2.527344 0.078125 C 3.574219 0.078125 4.78125 -0.28125 4.789062 -1.550781 C 4.789062 -2.746094 3.683594 -2.957031 2.574219 -3.128906 C 1.785156 -3.261719 1.140625 -3.402344 1.140625 -4.007812 C 1.140625 -4.664062 1.847656 -4.9375 2.535156 -4.9375 C 2.957031 -4.9375 3.464844 -4.84375 3.828125 -4.617188 L 3.859375 -3.828125 L 4.460938 -3.828125 C 4.460938 -4.226562 4.46875 -4.515625 4.46875 -4.914062 C 3.882812 -5.398438 3.246094 -5.539062 2.519531 -5.539062 Z M 2.519531 -5.539062 "/></g></g></g><g fill="rgb(100%, 100%, 100%)" fill-opacity="1"><g transform="translate(69.19284, 69.450016)"><g/></g></g></svg>