<svg xmlns="http://www.w3.org/2000/svg" xmlns:xlink="http://www.w3.org/1999/xlink" width="80" zoomAndPan="magnify" viewBox="0 0 60 60" height="80" preserveAspectRatio="xMidYMid meet" version="1.0"><path fill="rgb(0%, 62.748718%, 79.60968%)" d="M 14.679688 42.847656 C 14.410156 42.847656 14.140625 42.722656 13.960938 42.488281 C 8.320312 35.027344 9.066406 24.402344 15.6875 17.78125 C 23.042969 10.421875 35.019531 10.421875 42.378906 17.78125 C 42.730469 18.132812 42.730469 18.707031 42.378906 19.058594 C 42.027344 19.410156 41.453125 19.410156 41.101562 19.058594 C 34.445312 12.40625 23.625 12.402344 16.96875 19.058594 C 10.984375 25.042969 10.3125 34.648438 15.410156 41.398438 C 15.710938 41.800781 15.628906 42.367188 15.230469 42.664062 C 15.0625 42.785156 14.871094 42.847656 14.679688 42.847656 Z M 14.679688 42.847656 " fill-opacity="1" fill-rule="nonzero"/><path fill="rgb(0%, 62.748718%, 79.60968%)" d="M 27.445312 49.921875 C 27.421875 49.921875 27.390625 49.921875 27.363281 49.917969 C 23.613281 49.589844 20.09375 48.167969 17.175781 45.8125 C 16.789062 45.496094 16.726562 44.929688 17.042969 44.542969 C 17.355469 44.152344 17.921875 44.09375 18.3125 44.40625 C 20.941406 46.53125 24.128906 47.820312 27.519531 48.117188 C 28.019531 48.160156 28.382812 48.597656 28.339844 49.097656 C 28.300781 49.566406 27.90625 49.921875 27.445312 49.921875 Z M 27.445312 49.921875 " fill-opacity="1" fill-rule="nonzero"/><path fill="rgb(0%, 62.748718%, 79.60968%)" d="M 30.046875 49.964844 C 29.570312 49.964844 29.171875 49.597656 29.144531 49.117188 C 29.117188 48.617188 29.496094 48.191406 29.996094 48.160156 C 34.195312 47.925781 38.140625 46.164062 41.101562 43.199219 C 41.453125 42.847656 42.027344 42.847656 42.378906 43.199219 C 42.730469 43.550781 42.730469 44.125 42.378906 44.472656 C 39.101562 47.753906 34.738281 49.707031 30.09375 49.964844 C 30.082031 49.960938 30.066406 49.964844 30.046875 49.964844 Z M 30.046875 49.964844 " fill-opacity="1" fill-rule="nonzero"/><path fill="rgb(0%, 62.748718%, 79.60968%)" d="M 42.847656 22.625 C 41.28125 22.625 40.007812 21.351562 40.007812 19.785156 C 40.007812 18.21875 41.28125 16.941406 42.847656 16.941406 C 44.414062 16.941406 45.6875 18.21875 45.6875 19.785156 C 45.6875 21.351562 44.414062 22.625 42.847656 22.625 Z M 42.847656 18.753906 C 42.28125 18.753906 41.816406 19.21875 41.816406 19.785156 C 41.816406 20.351562 42.28125 20.8125 42.847656 20.8125 C 43.414062 20.8125 43.875 20.351562 43.875 19.785156 C 43.882812 19.21875 43.421875 18.753906 42.847656 18.753906 Z M 42.847656 18.753906 " fill-opacity="1" fill-rule="nonzero"/><path fill="rgb(0%, 62.748718%, 79.60968%)" d="M 42.847656 45.320312 C 41.28125 45.320312 40.007812 44.042969 40.007812 42.476562 C 40.007812 40.914062 41.28125 39.636719 42.847656 39.636719 C 44.414062 39.636719 45.6875 40.914062 45.6875 42.476562 C 45.6875 44.042969 44.414062 45.320312 42.847656 45.320312 Z M 42.847656 41.449219 C 42.28125 41.449219 41.816406 41.910156 41.816406 42.476562 C 41.816406 43.042969 42.28125 43.507812 42.847656 43.507812 C 43.414062 43.507812 43.875 43.042969 43.875 42.476562 C 43.882812 41.910156 43.421875 41.449219 42.847656 41.449219 Z M 42.847656 41.449219 " fill-opacity="1" fill-rule="nonzero"/><path fill="rgb(100%, 56.858826%, 30.198669%)" d="M 29.035156 45 C 21.386719 45 15.160156 38.773438 15.160156 31.125 C 15.160156 23.476562 21.386719 17.25 29.035156 17.25 C 29.535156 17.25 29.941406 17.65625 29.941406 18.15625 C 29.941406 18.65625 29.535156 19.0625 29.035156 19.0625 C 22.378906 19.0625 16.96875 24.472656 16.96875 31.132812 C 16.96875 37.789062 22.378906 43.199219 29.035156 43.199219 C 35.691406 43.199219 41.101562 37.78125 41.101562 31.125 C 41.101562 30.625 41.511719 30.21875 42.007812 30.21875 C 42.507812 30.21875 42.914062 30.625 42.914062 31.125 C 42.910156 38.773438 36.683594 45 29.035156 45 Z M 29.035156 45 " fill-opacity="1" fill-rule="nonzero"/><path fill="rgb(100%, 56.858826%, 30.198669%)" d="M 42.003906 32.03125 C 40.4375 32.03125 39.160156 30.753906 39.160156 29.191406 C 39.160156 27.625 40.4375 26.347656 42.003906 26.347656 C 43.570312 26.347656 44.84375 27.625 44.84375 29.191406 C 44.84375 30.753906 43.570312 32.03125 42.003906 32.03125 Z M 42.003906 28.160156 C 41.4375 28.160156 40.972656 28.621094 40.972656 29.195312 C 40.972656 29.761719 41.4375 30.226562 42.003906 30.226562 C 42.570312 30.226562 43.03125 29.761719 43.03125 29.195312 C 43.039062 28.621094 42.578125 28.160156 42.003906 28.160156 Z M 42.003906 28.160156 " fill-opacity="1" fill-rule="nonzero"/><path fill="rgb(0%, 76.078796%, 79.60968%)" d="M 2.324219 40.339844 C 1.933594 40.339844 1.582031 40.09375 1.460938 39.703125 C 0.597656 36.929688 0.160156 34.046875 0.160156 31.125 C 0.160156 15.203125 13.109375 2.253906 29.035156 2.253906 C 29.535156 2.253906 29.941406 2.664062 29.941406 3.160156 C 29.941406 3.660156 29.535156 4.066406 29.035156 4.066406 C 14.113281 4.066406 1.972656 16.210938 1.972656 31.132812 C 1.972656 33.875 2.386719 36.574219 3.191406 39.167969 C 3.339844 39.640625 3.074219 40.148438 2.601562 40.300781 C 2.503906 40.320312 2.410156 40.339844 2.324219 40.339844 Z M 2.324219 40.339844 " fill-opacity="1" fill-rule="nonzero"/><path fill="rgb(0%, 76.078796%, 79.60968%)" d="M 18.15625 57.792969 C 18.039062 57.792969 17.921875 57.769531 17.804688 57.71875 C 10.921875 54.808594 5.3125 49.183594 2.410156 42.292969 C 2.21875 41.832031 2.433594 41.300781 2.890625 41.109375 C 3.347656 40.914062 3.875 41.132812 4.074219 41.589844 C 6.792969 48.050781 12.054688 53.324219 18.507812 56.054688 C 18.972656 56.253906 19.179688 56.78125 18.988281 57.238281 C 18.839844 57.589844 18.507812 57.792969 18.15625 57.792969 Z M 18.15625 57.792969 " fill-opacity="1" fill-rule="nonzero"/><path fill="rgb(0%, 76.078796%, 79.60968%)" d="M 29.035156 60 C 26.933594 60 24.839844 59.773438 22.804688 59.320312 C 22.316406 59.21875 22.007812 58.730469 22.121094 58.242188 C 22.226562 57.757812 22.710938 57.449219 23.199219 57.558594 C 26.324219 58.25 29.621094 58.378906 32.789062 57.933594 C 33.289062 57.859375 33.738281 58.210938 33.804688 58.707031 C 33.875 59.199219 33.527344 59.65625 33.035156 59.722656 C 31.714844 59.90625 30.367188 60 29.035156 60 Z M 29.035156 60 " fill-opacity="1" fill-rule="nonzero"/><path fill="rgb(0%, 76.078796%, 79.60968%)" d="M 37.003906 58.839844 C 36.617188 58.839844 36.257812 58.589844 36.140625 58.195312 C 36 57.714844 36.269531 57.214844 36.75 57.074219 C 48.148438 53.675781 56.105469 43.007812 56.105469 31.125 C 56.105469 30.625 56.511719 30.21875 57.011719 30.21875 C 57.511719 30.21875 57.917969 30.625 57.917969 31.125 C 57.917969 43.804688 49.429688 55.179688 37.277344 58.804688 C 37.175781 58.828125 37.089844 58.839844 37.003906 58.839844 Z M 37.003906 58.839844 " fill-opacity="1" fill-rule="nonzero"/><path fill="rgb(0%, 76.078796%, 79.60968%)" d="M 30.972656 5.675781 C 29.40625 5.675781 28.128906 4.402344 28.128906 2.835938 C 28.128906 1.269531 29.40625 0 30.972656 0 C 32.535156 0 33.8125 1.277344 33.8125 2.839844 C 33.8125 4.40625 32.535156 5.675781 30.972656 5.675781 Z M 30.972656 1.804688 C 30.402344 1.804688 29.941406 2.269531 29.941406 2.835938 C 29.941406 3.402344 30.402344 3.863281 30.972656 3.863281 C 31.539062 3.863281 32.007812 3.402344 32.007812 2.835938 C 32.007812 2.269531 31.539062 1.804688 30.972656 1.804688 Z M 30.972656 1.804688 " fill-opacity="1" fill-rule="nonzero"/><path fill="rgb(0%, 76.078796%, 79.60968%)" d="M 57.003906 32.03125 C 55.4375 32.03125 54.164062 30.753906 54.164062 29.191406 C 54.164062 27.625 55.4375 26.347656 57.003906 26.347656 C 58.570312 26.347656 59.847656 27.625 59.847656 29.191406 C 59.839844 30.753906 58.5625 32.03125 57.003906 32.03125 Z M 57.003906 28.160156 C 56.4375 28.160156 55.976562 28.621094 55.976562 29.195312 C 55.976562 29.761719 56.4375 30.226562 57.003906 30.226562 C 57.570312 30.226562 58.035156 29.761719 58.035156 29.195312 C 58.035156 28.621094 57.570312 28.160156 57.003906 28.160156 Z M 57.003906 28.160156 " fill-opacity="1" fill-rule="nonzero"/><path fill="rgb(49.409485%, 85.099792%, 34.118652%)" d="M 29.035156 55 C 15.871094 55 5.164062 44.289062 5.164062 31.132812 C 5.164062 30.632812 5.570312 30.226562 6.070312 30.226562 C 6.570312 30.226562 6.976562 30.632812 6.976562 31.132812 C 6.976562 43.296875 16.875 53.195312 29.042969 53.195312 C 38.707031 53.195312 47.15625 47 50.082031 37.789062 C 50.230469 37.3125 50.742188 37.046875 51.21875 37.203125 C 51.691406 37.351562 51.957031 37.859375 51.804688 38.335938 C 48.636719 48.300781 39.480469 55 29.035156 55 Z M 29.035156 55 " fill-opacity="1" fill-rule="nonzero"/><path fill="rgb(49.409485%, 85.099792%, 34.118652%)" d="M 51.773438 35.296875 C 51.730469 35.296875 51.6875 35.292969 51.640625 35.285156 C 51.148438 35.21875 50.804688 34.753906 50.878906 34.261719 C 51.027344 33.234375 51.101562 32.171875 51.101562 31.117188 C 51.101562 18.953125 41.203125 9.054688 29.035156 9.054688 C 28.535156 9.054688 28.128906 8.648438 28.128906 8.148438 C 28.128906 7.648438 28.535156 7.242188 29.035156 7.242188 C 42.199219 7.242188 52.90625 17.953125 52.90625 31.117188 C 52.90625 32.253906 52.824219 33.398438 52.664062 34.515625 C 52.597656 34.972656 52.214844 35.296875 51.773438 35.296875 Z M 51.773438 35.296875 " fill-opacity="1" fill-rule="nonzero"/><path fill="rgb(49.409485%, 85.099792%, 34.118652%)" d="M 27.445312 10.996094 C 25.878906 10.996094 24.605469 9.71875 24.605469 8.152344 C 24.605469 6.589844 25.878906 5.3125 27.445312 5.3125 C 29.011719 5.3125 30.285156 6.589844 30.285156 8.152344 C 30.28125 9.71875 29.011719 10.996094 27.445312 10.996094 Z M 27.445312 7.125 C 26.878906 7.125 26.410156 7.585938 26.410156 8.152344 C 26.410156 8.722656 26.871094 9.191406 27.445312 9.191406 C 28.011719 9.191406 28.472656 8.726562 28.472656 8.152344 C 28.472656 7.585938 28.011719 7.125 27.445312 7.125 Z M 27.445312 7.125 " fill-opacity="1" fill-rule="nonzero"/><path fill="rgb(49.409485%, 85.099792%, 34.118652%)" d="M 6.066406 32.03125 C 4.5 32.03125 3.222656 30.753906 3.222656 29.191406 C 3.222656 27.625 4.5 26.347656 6.066406 26.347656 C 7.628906 26.347656 8.90625 27.625 8.90625 29.191406 C 8.898438 30.753906 7.628906 32.03125 6.066406 32.03125 Z M 6.066406 28.160156 C 5.496094 28.160156 5.035156 28.621094 5.035156 29.195312 C 5.035156 29.761719 5.496094 30.226562 6.066406 30.226562 C 6.632812 30.226562 7.09375 29.761719 7.09375 29.195312 C 7.09375 28.621094 6.632812 28.160156 6.066406 28.160156 Z M 6.066406 28.160156 " fill-opacity="1" fill-rule="nonzero"/><path fill="rgb(0%, 87.059021%, 98.81897%)" d="M 29.035156 40 C 24.140625 40 20.160156 36.019531 20.160156 31.125 C 20.160156 30.625 20.566406 30.21875 21.066406 30.21875 C 21.566406 30.21875 21.972656 30.625 21.972656 31.125 C 21.972656 35.019531 25.144531 38.195312 29.042969 38.195312 C 30.15625 38.195312 31.222656 37.941406 32.214844 37.441406 C 32.660156 37.214844 33.203125 37.394531 33.429688 37.84375 C 33.652344 38.285156 33.472656 38.828125 33.027344 39.058594 C 31.773438 39.6875 30.433594 40 29.035156 40 Z M 29.035156 40 " fill-opacity="1" fill-rule="nonzero"/><path fill="rgb(0%, 87.059021%, 98.81897%)" d="M 35.144531 37.140625 C 34.941406 37.140625 34.730469 37.074219 34.5625 36.929688 C 34.183594 36.609375 34.132812 36.042969 34.453125 35.660156 C 35.511719 34.390625 36.097656 32.78125 36.097656 31.132812 C 36.097656 27.234375 32.925781 24.0625 29.027344 24.0625 C 28.53125 24.0625 28.125 23.65625 28.125 23.15625 C 28.125 22.65625 28.53125 22.25 29.027344 22.25 C 33.921875 22.25 37.90625 26.230469 37.90625 31.125 C 37.90625 33.203125 37.171875 35.222656 35.832031 36.820312 C 35.660156 37.027344 35.402344 37.140625 35.144531 37.140625 Z M 35.144531 37.140625 " fill-opacity="1" fill-rule="nonzero"/><path fill="rgb(0%, 87.059021%, 98.81897%)" d="M 21.058594 32.308594 C 19.496094 32.308594 18.21875 31.03125 18.21875 29.46875 C 18.21875 27.902344 19.496094 26.625 21.058594 26.625 C 22.625 26.625 23.902344 27.902344 23.902344 29.46875 C 23.902344 31.03125 22.625 32.308594 21.058594 32.308594 Z M 21.058594 28.4375 C 20.492188 28.4375 20.03125 28.898438 20.03125 29.46875 C 20.03125 30.035156 20.492188 30.496094 21.058594 30.496094 C 21.628906 30.496094 22.089844 30.035156 22.089844 29.46875 C 22.089844 28.898438 21.628906 28.4375 21.058594 28.4375 Z M 21.058594 28.4375 " fill-opacity="1" fill-rule="nonzero"/></svg>